<svg viewBox="0 0 200 200" width="1000px" height="1000px" role="img" aria-labelledby="leni desc" tabindex="1" xmlns="http://www.w3.org/2000/svg" xmlns:xlink="http://www.w3.org/1999/xlink" class="leni-head"><style type="text/css"> .leni-head.toni .toni-eye { fill: #fcee21; } .leni-head.toni .toni-eyelid, .leni-head.toni .leni-hands { fill: #3baacc; } .leni-head.toni #eye path:first-child, .leni-head.toni #eye-left path:first-child, .leni-head.toni #eye-heart path:first-child, .leni-head.toni #eye-broken path:first-child, .leni-head.toni #eye-confused path:first-child, .leni-head.toni #eye-up path:first-child, .leni-head.toni #eye-right path:first-child, .leni-head.toni #eye-up2 path:first-child, .leni-head.toni #eye-tired path:first-child, .leni-head.toni #eye-bad path:first-child, .leni-head.toni #eye-smirk path:first-child, .leni-head.toni #eye-sick path:first-child, .leni-head.toni #eye-tired2 path:first-child, .leni-head.toni #eye-happy path:first-child { fill: none; } </style><title id="leni">Leni</title><desc id="desc">Choose parts to build your leni</desc><g id="toni"><path fill="#3baacd" d="M60.7 164.84c.88-23.22-16.05-37.56-15.54-66.66.25-14.54 4.14-52.49 49.77-58.84 19.43-2.71 67.12 8.17 61.4 60.34-3.72 34-17.88 41.83-18.66 64.87"/><path fill="#131726" d="M62.2 164.84a55 55 0 00-2.82-18.61c-1.88-5.9-4.39-11.56-6.6-17.33a91.49 91.49 0 01-5.48-19.8 74.26 74.26 0 01-.47-15.2 70.06 70.06 0 014.76-21.76 48.29 48.29 0 0117.16-21.72A55.54 55.54 0 0184.85 43a58.42 58.42 0 0114.59-2.5 62.94 62.94 0 0122.12 3.5 52.72 52.72 0 0122 14c7 7.74 10.76 17.77 11.57 28.11a84 84 0 01-1.47 21.69 105.06 105.06 0 01-5.51 19.36c-3.77 9.63-9.12 18.72-11 29a56.91 56.91 0 00-.92 8.33c-.07 1.94 2.93 1.93 3 0a53.57 53.57 0 013.08-15.88c1.72-4.85 4-9.47 6.06-14.17C154 121.68 157.74 108 158.26 94c.42-11.45-1.95-23.15-8.45-32.73a51.59 51.59 0 00-21.35-17.64 68.05 68.05 0 00-24.12-6 62.06 62.06 0 00-29.4 5.91 50.81 50.81 0 00-22.86 20.78 65.21 65.21 0 00-7.69 23.92 77.94 77.94 0 001.89 30.63c3.35 12.41 10.11 23.79 12.3 36.53a45.93 45.93 0 01.62 9.44c-.07 1.93 2.93 1.93 3 0z"/><path fill="#fcee21" d="M58.65 147.13s9.7-5.83 2.42-20.07C58.9 122.81 53 119 48.88 121c0 0 6.32 18 9.77 26.13zM69.26 48.77s1 7.15-2.6 11.46c-1.88 2.25-7.86 8.57-13.88 7.05a46.23 46.23 0 0116.48-18.51zM96.18 45.56c-.58 2.55 2 5.19 6.87 3.44 4.6-1.63 3.7-5.58 2-6.46-3.05-1.62-8.05-.47-8.87 3.02zM155.11 78.33s-9.33 1.18-12.13-7.82c-1.25-4-.15-9 1.79-12.67 0 0 9.14 10.16 10.34 20.49zM147.08 110.11c-1.51 2.57-2.12 7.34-1.24 9.88s4.06 4.86 4.06 4.86c2.39-5.47 5.75-19 5.75-19-5.03.41-6.83 1.85-8.57 4.26zM58.44 92.14a3.14 3.14 0 003.62 2.59 3.42 3.42 0 002.23-4 3.08 3.08 0 00-3.81-2.25 3.24 3.24 0 00-2 3.7M124.61 53.55a2.36 2.36 0 002.3 2.19 3.14 3.14 0 003-1.74 2.66 2.66 0 00-3.15-3 2.77 2.77 0 00-2.15 2.55z"/><path fill="#ffca30" d="M138 164.6l-.61 5c-10.83.24-72.54.06-77-.06-.18-1.32.09-3.55-.25-5-.06.06 46.74.29 77.86.06z"/><path fill="#131726" d="M136.49 164.6l-.61 5 1.5-1.5c-9.85.21-19.71.12-29.56.12q-18.69 0-37.38-.1c-3.37 0-6.75 0-10.11-.08l1.5 1.5c-.2-1.79.06-3.58-.3-5.36l-1.45 1.89 17.62.07h38.08q11.1 0 22.21-.09a1.5 1.5 0 000-3c-13.27.1-26.55.11-39.82.1q-16 0-31.93-.07h-6.16a1.53 1.53 0 00-1.45 1.9c.31 1.5 0 3.06.2 4.57a1.52 1.52 0 001.5 1.5c8.34.21 16.7.12 25 .14q19.32.06 38.64 0c4.45 0 8.91 0 13.36-.1a1.54 1.54 0 001.5-1.5l.61-5c.28-1.9-2.72-1.89-2.95.01z"/><path fill="#131726" d="M62.2 164.84a55 55 0 00-2.82-18.61c-1.88-5.9-4.39-11.56-6.6-17.33a91.49 91.49 0 01-5.48-19.8 74.26 74.26 0 01-.47-15.2 70.06 70.06 0 014.76-21.76 48.29 48.29 0 0117.16-21.72A55.54 55.54 0 0184.85 43a58.42 58.42 0 0114.59-2.5 62.94 62.94 0 0122.12 3.5 52.72 52.72 0 0122 14c7 7.74 10.76 17.77 11.57 28.11a84 84 0 01-1.47 21.69 105.06 105.06 0 01-5.51 19.36c-3.77 9.63-9.12 18.72-11 29a56.91 56.91 0 00-.92 8.33c-.07 1.94 2.93 1.93 3 0a53.57 53.57 0 013.08-15.88c1.72-4.85 4-9.47 6.06-14.17C154 121.68 157.74 108 158.26 94c.42-11.45-1.95-23.15-8.45-32.73a51.59 51.59 0 00-21.35-17.64 68.05 68.05 0 00-24.12-6 62.06 62.06 0 00-29.4 5.91 50.81 50.81 0 00-22.86 20.78 65.21 65.21 0 00-7.69 23.92 77.94 77.94 0 001.89 30.63c3.35 12.41 10.11 23.79 12.3 36.53a45.93 45.93 0 01.62 9.44c-.07 1.93 2.93 1.93 3 0z"/></g><g id="head"><path fill="#69b3b2" d="M60.7 164.84c.88-23.22-16.05-37.56-15.54-66.66.25-14.54 4.14-52.49 49.77-58.84 19.43-2.71 67.12 8.17 61.4 60.34-3.72 34-17.88 41.83-18.66 64.87"/><path fill="#141827" d="M62.2 164.84a55 55 0 00-2.82-18.61c-1.88-5.9-4.39-11.56-6.6-17.33a91.49 91.49 0 01-5.48-19.8 74.26 74.26 0 01-.47-15.2 70.06 70.06 0 014.76-21.76 48.29 48.29 0 0117.16-21.72A55.54 55.54 0 0184.85 43a58.42 58.42 0 0114.59-2.5 62.94 62.94 0 0122.12 3.5 52.72 52.72 0 0122 14c7 7.74 10.76 17.77 11.57 28.11a84 84 0 01-1.47 21.69 105.06 105.06 0 01-5.51 19.36c-3.77 9.63-9.12 18.72-11 29a56.91 56.91 0 00-.92 8.33c-.07 1.94 2.93 1.93 3 0a53.57 53.57 0 013.08-15.88c1.72-4.85 4-9.47 6.06-14.17C154 121.68 157.74 108 158.26 94c.42-11.45-1.95-23.15-8.45-32.73a51.59 51.59 0 00-21.35-17.64 68.05 68.05 0 00-24.12-6 62.06 62.06 0 00-29.4 5.91 50.81 50.81 0 00-22.86 20.78 65.21 65.21 0 00-7.69 23.92 77.94 77.94 0 001.89 30.63c3.35 12.41 10.11 23.79 12.3 36.53a45.93 45.93 0 01.62 9.44c-.07 1.93 2.93 1.93 3 0z"/><g fill="#151b2d" opacity=".16"><path d="M58.65 147.13s9.7-5.83 2.42-20.07C58.9 122.81 53 119 48.88 121c0 0 6.32 18 9.77 26.13z"/><path d="M69.26 48.77s1 7.15-2.6 11.46c-1.88 2.25-7.86 8.57-13.88 7.05a46.23 46.23 0 0116.48-18.51z"/><path d="M96.18 45.56c-.58 2.55 2 5.19 6.87 3.44 4.6-1.63 3.7-5.58 2-6.46-3.05-1.62-8.05-.47-8.87 3.02z"/><path d="M155.11 78.33s-9.33 1.18-12.13-7.82c-1.25-4-.15-9 1.79-12.67 0 0 9.14 10.16 10.34 20.49z"/><path d="M147.08 110.11c-1.51 2.57-2.12 7.34-1.24 9.88s4.06 4.86 4.06 4.86c2.39-5.47 5.75-19 5.75-19-5.03.41-6.83 1.85-8.57 4.26z"/><path d="M58.44 92.14a3.14 3.14 0 003.62 2.59 3.42 3.42 0 002.23-4 3.08 3.08 0 00-3.81-2.25 3.24 3.24 0 00-2 3.7"/><path d="M124.61 53.55a2.36 2.36 0 002.3 2.19 3.14 3.14 0 003-1.74 2.66 2.66 0 00-3.15-3 2.77 2.77 0 00-2.15 2.55z"/></g><path fill="#ffcb31" d="M138 164.6l-.61 5c-10.63.23-73 .05-77-.06-.18-1.32.09-3.55-.25-5-.06.06 46.74.29 77.86.06z"/><path fill="#141827" d="M136.49 164.6l-.61 5 1.5-1.5c-9.85.21-19.72.12-29.58.11q-18.73 0-37.49-.09c-3.33 0-6.66 0-10-.08l1.5 1.5c-.2-1.79.06-3.58-.3-5.36l-1.45 1.89 17.62.07h38.08q11.1 0 22.21-.09a1.5 1.5 0 000-3c-13.27.1-26.55.11-39.82.1q-16 0-31.93-.07h-6.16a1.53 1.53 0 00-1.45 1.9c.31 1.5 0 3.06.2 4.57a1.52 1.52 0 001.5 1.5c8.29.21 16.6.11 24.9.13q19.39.06 38.8 0c4.45 0 8.9 0 13.35-.1a1.54 1.54 0 001.5-1.5l.61-5c.25-1.89-2.75-1.88-2.98.02z"/><path fill="#141827" d="M62.2 164.84a55 55 0 00-2.82-18.61c-1.88-5.9-4.39-11.56-6.6-17.33a91.49 91.49 0 01-5.48-19.8 74.26 74.26 0 01-.47-15.2 70.06 70.06 0 014.76-21.76 48.29 48.29 0 0117.16-21.72A55.54 55.54 0 0184.85 43a58.42 58.42 0 0114.59-2.5 62.94 62.94 0 0122.12 3.5 52.72 52.72 0 0122 14c7 7.74 10.76 17.77 11.57 28.11a84 84 0 01-1.47 21.69 105.06 105.06 0 01-5.51 19.36c-3.77 9.63-9.12 18.72-11 29a56.91 56.91 0 00-.92 8.33c-.07 1.94 2.93 1.93 3 0a53.57 53.57 0 013.08-15.88c1.72-4.85 4-9.47 6.06-14.17C154 121.68 157.74 108 158.26 94c.42-11.45-1.95-23.15-8.45-32.73a51.59 51.59 0 00-21.35-17.64 68.05 68.05 0 00-24.12-6 62.06 62.06 0 00-29.4 5.91 50.81 50.81 0 00-22.86 20.78 65.21 65.21 0 00-7.69 23.92 77.94 77.94 0 001.89 30.63c3.35 12.41 10.11 23.79 12.3 36.53a45.93 45.93 0 01.62 9.44c-.07 1.93 2.93 1.93 3 0z"/></g><g><g id="eye"><path fill="#f8f3dc" d="M74.18 72.55c-2.33 8.29-.5 20.75 3.58 27.15s10.57 9.52 18.14 10.77c9.89 1.64 20.75.57 27.51-7.42 7.06-8.35 7.67-18.75 4.46-29.54-3.4-11.4-8.69-18.23-21.65-20.5-9.62-1.69-28.11 1.07-32.04 19.54z"/><path fill="#141827" d="M72.73 72.15c-1.82 6.67-1.3 14.12.54 20.73S78.8 105 84.76 108.31s13.43 4.55 20.24 4.29c7-.27 14-2.54 18.83-7.77a28.78 28.78 0 007.39-20.52 45.33 45.33 0 00-5.4-19.9 24 24 0 00-11.95-10.8A33.81 33.81 0 0099 51.15c-10.73.67-20.71 6.15-24.85 16.43a29 29 0 00-1.38 4.57c-.41 1.89 2.48 2.69 2.89.8a22.89 22.89 0 017.89-13.28 26.65 26.65 0 0112.3-5.17c8.86-1.47 19.4.74 25.19 8 3.46 4.37 5.32 10.11 6.42 15.49 1.38 6.7 1 13.84-2.34 19.91a21.93 21.93 0 01-15.41 11.12 38.48 38.48 0 01-19-1.41A21.33 21.33 0 0177.48 96a39 39 0 01-2.66-18.7 26.85 26.85 0 01.8-4.35 1.5 1.5 0 00-2.89-.8z"/><path fill="#eae3ca" class="toni-eye" d="M78.77 99.59s4.42 8.16 17.13 10.33c7.11 1.21 18.86 1.21 27-7.43 4.73-5 8.22-15.66 4.29-28.69 0 0 2.16 48.4-48.42 25.79z"/><ellipse cx="101.16" cy="84.55" fill="#141827" rx="3.41" ry="3.7"/><path fill="#141827" d="M72.73 72.15c-1.82 6.67-1.3 14.12.54 20.73S78.8 105 84.76 108.31s13.43 4.55 20.24 4.29c7-.27 14-2.54 18.83-7.77a28.78 28.78 0 007.39-20.52 45.33 45.33 0 00-5.4-19.9 24 24 0 00-11.95-10.8A33.81 33.81 0 0099 51.15c-10.73.67-20.71 6.15-24.85 16.43a29 29 0 00-1.38 4.57c-.41 1.89 2.48 2.69 2.89.8a22.89 22.89 0 017.89-13.28 26.65 26.65 0 0112.3-5.17c8.86-1.47 19.4.74 25.19 8 3.46 4.37 5.32 10.11 6.42 15.49 1.38 6.7 1 13.84-2.34 19.91a21.93 21.93 0 01-15.41 11.12 38.48 38.48 0 01-19-1.41A21.33 21.33 0 0177.48 96a39 39 0 01-2.66-18.7 26.85 26.85 0 01.8-4.35 1.5 1.5 0 00-2.89-.8z"/></g></g><g><g id="blush" fill="#ef3d5a"><path d="M54.16 119.16c3.28 2.4 8.57.69 10.55-2.85a8 8 0 00-3.07-10.5c-2.64-1.43-6.28-1.3-8.47.75-5.27 4.93-1.69 10.65.99 12.6z"/><path d="M138 118.7c3.28 2.4 8.57.69 10.55-2.85a8 8 0 00-3.07-10.51c-2.64-1.42-6.28-1.29-8.47.76-5.26 4.9-1.68 10.64.99 12.6z"/></g></g><g><g id="mouth-happy" transform="translate(0 4)"><path fill="#1f2740" d="M73.47 116.15c21.46 12.13 47.67 4.89 56.86 1 2.93-1.24 2.27 21.28-6.83 28.5a36.59 36.59 0 01-30.6 7.15c-10.6-2.32-18.85-7.94-21.73-20.62-.83-3.64-1.03-17.59 2.3-16.03z"/><path fill="#141827" d="M72.71 117.45c12.48 7 27.16 8.1 41.07 5.83a78.64 78.64 0 0014.81-3.84c.3-.11 2.14-.59 2.23-.88-.08.27-1-.24-.9-.2s0-.23 0 0 .1.23.05.08a11.64 11.64 0 01.45 4.25 40.55 40.55 0 01-2.6 13.87 21.08 21.08 0 01-3.42 6.17 24.82 24.82 0 01-7.74 5.59 35 35 0 01-21.9 3.33c-5.56-1-11.16-3.06-15.29-7a24.33 24.33 0 01-7.05-14.36 46.18 46.18 0 01-.18-6.86 15.94 15.94 0 01.89-5.62l.22-.36c.07-.12.07 0-.09.07.26-.07-.27 0-.29 0s-.14 0 .14.07a1.52 1.52 0 001.85-1 1.54 1.54 0 00-1-1.84c-2-.84-3.33 1.14-3.86 2.75a25.14 25.14 0 00-.85 7.13 31.83 31.83 0 003.52 16C79.33 153 95.38 157 108.34 154.36a38 38 0 0011.24-4.25 24.63 24.63 0 007.61-6.17c3.27-4.31 4.87-9.9 5.66-15.18a39.67 39.67 0 00.52-7.13 10.5 10.5 0 00-.87-4.77c-1-1.71-2.44-1.19-3.94-.6-2.2.85-4.45 1.57-6.73 2.2-13.59 3.75-28.65 4.37-41.94-.88a47.45 47.45 0 01-5.66-2.72 1.5 1.5 0 00-1.52 2.59z"/><path fill="#fff" d="M81.34 120.12c-.47 2.63-1.71 5.32-.65 7.59s4 4 6.18 3.1c2.48-1 3.24-5.39 3.62-8.23"/><path fill="#141827" d="M79.9 119.72c-.41 2.18-1.33 4.39-1.08 6.65a7 7 0 003.33 5.09 5.89 5.89 0 005.58.61 6.58 6.58 0 003-3.88 22.6 22.6 0 001.21-5.19 1.54 1.54 0 00-1-1.84 1.51 1.51 0 00-1.84 1 30.82 30.82 0 01-.77 4c-.09.31-.19.63-.3.94 0 0-.22.55-.1.27l-.23.49a5.84 5.84 0 01-.45.76 1.43 1.43 0 01-.14.2c0-.05.2-.21 0 0a3.34 3.34 0 00-.32.33c-.18.18.18-.1-.1.07l-.34.19c.27-.16.13 0 0 0l-.26.08h-.75c-.24 0 .22 0 0 0h-.2a5 5 0 01-.55-.16l-.21-.07c-.1 0-.09 0 0 0l-.13-.06a4.19 4.19 0 01-2.42-2.89 7 7 0 01.22-2.6c.25-1.07.55-2.12.75-3.19a1.54 1.54 0 00-1.05-1.85 1.51 1.51 0 00-1.84 1z"/><path fill="#fff" d="M97.3 123.5c-.13 6.17.83 9.14 4.76 8.94 4.26-.3 4.82-6.13 4.82-9"/><path fill="#141827" d="M95.8 123.5a21.31 21.31 0 00.54 6.27 5.51 5.51 0 002.8 3.64 6.07 6.07 0 005.43-.2 7.48 7.48 0 003.11-4.41 19.32 19.32 0 00.7-5.41 1.5 1.5 0 10-3 0c0 .64 0 1.28-.08 1.91v.75-.2.21c0 .36-.12.72-.2 1.08s-.18.71-.29 1.06c0 .17-.11.33-.17.49l-.08.2c.16-.41 0 0-.06.1a6.65 6.65 0 01-.5.86l-.12.16c.25-.34 0-.07 0 0s-.27.27-.41.4a.55.55 0 01-.14.12c.36-.21.07-.05 0 0l-.42.24c-.14.08.24-.06 0 0l-.24.08c-.11 0-.75.14-.32.1a5.56 5.56 0 01-1 0h-.22c-.21 0 .39.09.09 0s-.32-.06-.48-.11l-.19-.07c-.27-.08.12 0 .11 0l-.34-.18-.19-.12s.3.26.13.1l-.33-.32c-.1-.11-.16-.16-.15-.18s.22.34.09.12-.15-.23-.21-.35-.19-.27-.19-.38c0 .28.08.22 0 0l-.09-.26a9.87 9.87 0 01-.3-1.19v-.27c0-.09-.07-.51 0-.11 0-.25-.06-.49-.08-.73a33.11 33.11 0 01-.08-3.45 1.52 1.52 0 00-1.5-1.5 1.54 1.54 0 00-1.5 1.5z"/><path fill="#fff" d="M114.23 122.27c0 4.1 0 8.2 4.46 8.2 4.74 0 4.74-6.27 4.74-10.35"/><path fill="#141827" d="M112.73 122.27c0 3.51 0 8.57 4.33 9.53a5.86 5.86 0 005.39-1.28 8 8 0 002.11-4.55 33.63 33.63 0 00.37-5.85 1.5 1.5 0 00-3 0 40.09 40.09 0 01-.17 4.38v.3c0 .24.06-.37 0 0 0 .16 0 .31-.08.47-.07.38-.16.76-.26 1.14 0 .14-.09.29-.14.43a1.72 1.72 0 01-.07.21s-.14.35 0 .12 0 .09-.06.11l-.09.19a4.83 4.83 0 01-.26.45l-.14.21c-.1.17.19-.19 0-.07s-.2.22-.31.32a1.66 1.66 0 01-.14.13c-.22.23.2-.1 0 0s-.32.19-.47.28-.24.07.08 0l-.19.07-.47.12c-.1 0-.35 0 0 0h-.23a5.3 5.3 0 01-.69 0h-.27-.06l-.53-.15c-.25-.07 0 0 0 0l-.24-.13-.23-.14c-.23-.13.11.14 0 0s-.23-.23-.33-.33 0 0 0 .07l-.15-.22-.23-.41c-.08-.14 0 0 0 .06l-.12-.31a8.39 8.39 0 01-.29-1.2v-.31c0 .22 0 .12 0 0s0-.47-.07-.71c-.06-1-.06-1.92-.06-2.88a1.5 1.5 0 00-3 0z"/><path fill="#ef3d5a" d="M125.69 143.16c2.37-2.84-16.14-1.14-19.66-1.28-13.3-.5-16 .23-28.56 2.88 0 0 15.07 15.48 38.73 5.35a27.31 27.31 0 009.49-6.95z"/><path fill="#141827" d="M126.75 144.22a2.09 2.09 0 000-3 5.41 5.41 0 00-3.07-1 59.45 59.45 0 00-9.34-.11c-2.7.1-5.41.33-8.1.29a119 119 0 00-13.88.15 146.47 146.47 0 00-15.28 2.77 1.52 1.52 0 00-.66 2.51 30.18 30.18 0 009.41 6.17 37.3 37.3 0 0025.1 1.6c6-1.66 11.76-4.55 15.82-9.34 1.25-1.46-.87-3.59-2.12-2.12-6.27 7.39-17.16 10.5-26.59 9.87a33 33 0 01-17-6.16 17.87 17.87 0 01-2.55-2.11l-.66 2.5c4.18-.88 8.36-1.85 12.59-2.43a73 73 0 0111.55-.51c2.89.06 5.73.12 8.62 0s6-.27 9.05-.25a31.88 31.88 0 013.92.21c.26 0 .52.1.78.16a2.1 2.1 0 01.24.06c.3.09 0 0 0 0s.15.07.16.09a2.24 2.24 0 01-.34-.44 1 1 0 01.15-1c-1.09 1.48 1.02 3.62 2.2 2.09z"/><path fill="#dd284b" d="M78.28 145.15s3.55 2.75 10.52 3.46c11.21 1.14 16.65-4.42 37.32-6.37 0 0-29.2-2.76-47.84 2.91z"/><path fill="#ededee" d="M97.78 125.86s2-2 8.89-1.52l-.13-1.21-8.91.28a3.81 3.81 0 00.15 2.45z"/><path fill="#ededee" d="M80.86 123.14s1.67-2 9 .72l.16-1.54-8.39-2.1a4.35 4.35 0 00-.77 2.92z"/><path fill="#ededee" d="M114.92 125.51s1.33-3.77 8-4.19l.07-1.2-8.17 1.88a11.86 11.86 0 00.1 3.51z"/><path fill="#141827" d="M79.9 119.72c-.41 2.18-1.33 4.39-1.08 6.65a7 7 0 003.33 5.09 5.89 5.89 0 005.58.61 6.58 6.58 0 003-3.88 22.6 22.6 0 001.21-5.19 1.54 1.54 0 00-1-1.84 1.51 1.51 0 00-1.84 1 30.82 30.82 0 01-.77 4c-.09.31-.19.63-.3.94 0 0-.22.55-.1.27l-.23.49a5.84 5.84 0 01-.45.76 1.43 1.43 0 01-.14.2c0-.05.2-.21 0 0a3.34 3.34 0 00-.32.33c-.18.18.18-.1-.1.07l-.34.19c.27-.16.13 0 0 0l-.26.08h-.75c-.24 0 .22 0 0 0h-.2a5 5 0 01-.55-.16l-.21-.07c-.1 0-.09 0 0 0l-.13-.06a4.19 4.19 0 01-2.42-2.89 7 7 0 01.22-2.6c.25-1.07.55-2.12.75-3.19a1.54 1.54 0 00-1.05-1.85 1.51 1.51 0 00-1.84 1z"/><path fill="#141827" d="M95.8 123.5a21.31 21.31 0 00.54 6.27 5.51 5.51 0 002.8 3.64 6.07 6.07 0 005.43-.2 7.48 7.48 0 003.11-4.41 19.32 19.32 0 00.7-5.41 1.5 1.5 0 10-3 0c0 .64 0 1.28-.08 1.91v.75-.2.21c0 .36-.12.72-.2 1.08s-.18.71-.29 1.06c0 .17-.11.33-.17.49l-.08.2c.16-.41 0 0-.06.1a6.65 6.65 0 01-.5.86l-.12.16c.25-.34 0-.07 0 0s-.27.27-.41.4a.55.55 0 01-.14.12c.36-.21.07-.05 0 0l-.42.24c-.14.08.24-.06 0 0l-.24.08c-.11 0-.75.14-.32.1a5.56 5.56 0 01-1 0h-.22c-.21 0 .39.09.09 0s-.32-.06-.48-.11l-.19-.07c-.27-.08.12 0 .11 0l-.34-.18-.19-.12s.3.26.13.1l-.33-.32c-.1-.11-.16-.16-.15-.18s.22.34.09.12-.15-.23-.21-.35-.19-.27-.19-.38c0 .28.08.22 0 0l-.09-.26a9.87 9.87 0 01-.3-1.19v-.27c0-.09-.07-.51 0-.11 0-.25-.06-.49-.08-.73a33.11 33.11 0 01-.08-3.45 1.52 1.52 0 00-1.5-1.5 1.54 1.54 0 00-1.5 1.5z"/><path fill="#141827" d="M112.73 122.27c0 3.51 0 8.57 4.33 9.53a5.86 5.86 0 005.39-1.28 8 8 0 002.11-4.55 33.63 33.63 0 00.37-5.85 1.5 1.5 0 00-3 0 40.09 40.09 0 01-.17 4.38v.3c0 .24.06-.37 0 0 0 .16 0 .31-.08.47-.07.38-.16.76-.26 1.14 0 .14-.09.29-.14.43a1.72 1.72 0 01-.07.21s-.14.35 0 .12 0 .09-.06.11l-.09.19a4.83 4.83 0 01-.26.45l-.14.21c-.1.17.19-.19 0-.07s-.2.22-.31.32a1.66 1.66 0 01-.14.13c-.22.23.2-.1 0 0s-.32.19-.47.28-.24.07.08 0l-.19.07-.47.12c-.1 0-.35 0 0 0h-.23a5.3 5.3 0 01-.69 0h-.27-.06l-.53-.15c-.25-.07 0 0 0 0l-.24-.13-.23-.14c-.23-.13.11.14 0 0s-.23-.23-.33-.33 0 0 0 .07l-.15-.22-.23-.41c-.08-.14 0 0 0 .06l-.12-.31a8.39 8.39 0 01-.29-1.2v-.31c0 .22 0 .12 0 0s0-.47-.07-.71c-.06-1-.06-1.92-.06-2.88a1.5 1.5 0 00-3 0z"/><path fill="#141827" d="M126.75 144.22a2.09 2.09 0 000-3 5.41 5.41 0 00-3.07-1 59.45 59.45 0 00-9.34-.11c-2.7.1-5.41.33-8.1.29a119 119 0 00-13.88.15 146.47 146.47 0 00-15.28 2.77 1.52 1.52 0 00-.66 2.51 30.18 30.18 0 009.41 6.17 37.3 37.3 0 0025.1 1.6c6-1.66 11.76-4.55 15.82-9.34 1.25-1.46-.87-3.59-2.12-2.12-6.27 7.39-17.16 10.5-26.59 9.87a33 33 0 01-17-6.16 17.87 17.87 0 01-2.55-2.11l-.66 2.5c4.18-.88 8.36-1.85 12.59-2.43a73 73 0 0111.55-.51c2.89.06 5.73.12 8.62 0s6-.27 9.05-.25a31.88 31.88 0 013.92.21c.26 0 .52.1.78.16a2.1 2.1 0 01.24.06c.3.09 0 0 0 0s.15.07.16.09a2.24 2.24 0 01-.34-.44 1 1 0 01.15-1c-1.09 1.48 1.02 3.62 2.2 2.09z"/></g></g><!----><g><g id="hand-cv"><path fill="#f7f2db" d="M40.69 175.93c-.3-19-.6-40.48-.9-59.51 15.87-.75 29.74-.6 45.6-1.34 1.44-.07 3.11 0 4 .94.75.81.58 2 .58 3 .2 20.94.54 36.53.16 57-14.89.87-34.85 1.54-49.69.22"/><path fill="#131726" d="M42.19 175.93l-.7-46.6-.2-12.91-1.5 1.5c14.7-.68 29.42-.63 44.12-1.28 1.12 0 3.28-.52 4.23.25.44.36.36.92.36 1.43v3.17c0 3.61.08 7.21.12 10.82.07 6.71.15 13.43.17 20.14q0 11.78-.16 23.55l1.5-1.5c-16.5 1-33.21 1.66-49.69.22-1.93-.17-1.92 2.83 0 3 16.48 1.44 33.19.74 49.69-.22a1.54 1.54 0 001.5-1.5c.26-14.41.15-28.83 0-43.24 0-3.92-.09-7.84-.13-11.76a18.05 18.05 0 00-.17-4.47A4.08 4.08 0 0088 113.7a20 20 0 00-4.58 0c-2.1.09-4.19.17-6.29.24-3.76.12-7.52.2-11.28.28-8.69.18-17.38.34-26.06.74a1.52 1.52 0 00-1.5 1.5q.36 23.29.7 46.6l.2 12.91c0 1.93 3 1.94 3 0z"/><path fill="#131726" d="M56.21 124.84a4.56 4.56 0 00-5.56-2.16c-2.34.8-3.84 2.95-4.69 5.17a8.25 8.25 0 00.32 6.92A6.19 6.19 0 0051.7 138c2.25-.08 5-1.62 5.18-4.1a1.5 1.5 0 00-3 0v-.07c.09-.18.09-.18 0 0s-.09.15-.14.23c.09-.12.08-.11 0 0a3.22 3.22 0 01-.87.64 2.62 2.62 0 01-2 .2 3.69 3.69 0 01-2.48-3.46 6.93 6.93 0 012.08-5.2 3.3 3.3 0 011-.67 4.29 4.29 0 01.49-.13h.42a1.66 1.66 0 01.78.27l.08.05a2.28 2.28 0 01.22.22c-.1-.13.15.3.18.37a1.5 1.5 0 002.05.54 1.54 1.54 0 00.54-2zM59 124c.3 2.21.46 4.43.64 6.65.09 1 .18 2 .31 3 .07.54.14 1.08.23 1.62a3.87 3.87 0 00.37 1.39c.91 1.49 3.86 1.53 4.78.05a7.62 7.62 0 00.57-1.46l.54-1.54.94-2.7q1.11-3.21 2.07-6.47c.55-1.85-2.34-2.65-2.89-.8-1 3.28-2.08 6.51-3.21 9.73l-.45 1.29a1 1 0 00-.11.31c0 .23-.07.07 0 0l.19-.23c.05-.05.32-.17.2-.12s.28 0 .06 0h-.31a1.36 1.36 0 00-.32-.08c.22 0 .22.13.09 0a2.33 2.33 0 01.47.66l-.36-2.34c-.1-.84-.17-1.69-.24-2.54-.19-2.19-.35-4.38-.64-6.55a1.54 1.54 0 00-1.5-1.5A1.52 1.52 0 0059 124zM74.65 126.4h8.28a1.5 1.5 0 000-3h-8.28a1.5 1.5 0 000 3zM71.63 136.71h11.55a1.5 1.5 0 000-3H71.63a1.5 1.5 0 000 3zM46.91 146.72h35.92a1.5 1.5 0 000-3H46.91a1.5 1.5 0 000 3zM65.7 157c5.72 0 11.44.49 17.17.5a1.5 1.5 0 000-3c-5.73 0-11.45-.49-17.17-.5a1.5 1.5 0 000 3zM65.7 168c5.72 0 11.44.49 17.17.5a1.5 1.5 0 000-3c-5.73 0-11.45-.49-17.17-.5a1.5 1.5 0 000 3z"/><g id="hand-lgtb"><path fill="#69b2b1" class="leni-hands" d="M33.88 153.8c1-4.44 26.87-1.75 25.58 7.28a9.66 9.66 0 01-6.6 7.88c-4 1.15-16.41 1.57-19 .49a40 40 0 01.02-15.65z"/><path fill="#131726" d="M35.32 154.2c.06-.21-.06 0-.07.07s.16-.17.2-.2c-.26.16-.06.05.08 0a2.85 2.85 0 01.3-.16h.1a9.13 9.13 0 01.89-.27 17.2 17.2 0 014.41-.35 33.06 33.06 0 0111.17 2.1 13.23 13.23 0 014.06 2.3 3.79 3.79 0 011.54 2.83 8.22 8.22 0 01-3 5.65c-1.72 1.42-4 1.73-6.1 2a74.08 74.08 0 01-8.55.44c-1.95 0-4.26.15-6.11-.57l1.05 1.05a35.23 35.23 0 010-14.85c.4-1.88-2.49-2.69-2.89-.8a40.31 40.31 0 00-.4 13.64 14.32 14.32 0 00.45 2.76c.44 1.25 2 1.35 3.17 1.49a54.11 54.11 0 009.61.11c3-.17 6.31-.26 9.11-1.41 5.12-2.1 9.12-9.42 4.78-14.06-3.42-3.65-9.27-4.88-14-5.47a28 28 0 00-8.18 0c-1.72.29-4 1-4.45 2.9s2.35 2.67 2.83.8z"/></g></g></g><!----></svg>